<svg width="20" height="21" viewBox="0 0 20 21" fill="none" xmlns="http://www.w3.org/2000/svg">
<path d="M3.20834 7.68333C3.08671 7.13544 3.10539 6.5657 3.26264 6.02695C3.41989 5.4882 3.71063 4.99787 4.1079 4.60143C4.50517 4.205 4.9961 3.91529 5.53518 3.75916C6.07426 3.60304 6.64404 3.58555 7.19167 3.70833C7.4931 3.23692 7.90834 2.84897 8.39913 2.58024C8.88992 2.31151 9.44046 2.17065 10 2.17065C10.5596 2.17065 11.1101 2.31151 11.6009 2.58024C12.0917 2.84897 12.5069 3.23692 12.8083 3.70833C13.3568 3.58502 13.9276 3.60242 14.4675 3.75893C15.0074 3.91543 15.499 4.20595 15.8965 4.60346C16.2941 5.00097 16.5846 5.49256 16.7411 6.0325C16.8976 6.57244 16.915 7.14319 16.7917 7.69167C17.2631 7.99309 17.651 8.40834 17.9198 8.89913C18.1885 9.38992 18.3294 9.94046 18.3294 10.5C18.3294 11.0595 18.1885 11.6101 17.9198 12.1009C17.651 12.5917 17.2631 13.0069 16.7917 13.3083C16.9145 13.856 16.897 14.4257 16.7408 14.9648C16.5847 15.5039 16.295 15.9948 15.8986 16.3921C15.5021 16.7894 15.0118 17.0801 14.4731 17.2374C13.9343 17.3946 13.3646 17.4133 12.8167 17.2917C12.5156 17.7649 12.1001 18.1545 11.6084 18.4244C11.1168 18.6944 10.565 18.8359 10.0042 18.8359C9.44332 18.8359 8.89153 18.6944 8.3999 18.4244C7.90828 18.1545 7.49271 17.7649 7.19167 17.2917C6.64404 17.4144 6.07426 17.397 5.53518 17.2408C4.9961 17.0847 4.50517 16.795 4.1079 16.3986C3.71063 16.0021 3.41989 15.5118 3.26264 14.9731C3.10539 14.4343 3.08671 13.8646 3.20834 13.3167C2.73331 13.016 2.34202 12.6001 2.07088 12.1077C1.79974 11.6152 1.65756 11.0622 1.65756 10.5C1.65756 9.93783 1.79974 9.38479 2.07088 8.89232C2.34202 8.39986 2.73331 7.98396 3.20834 7.68333Z" stroke="#707070" stroke-width="2" stroke-linecap="round" stroke-linejoin="round"/>
<path d="M5.83334 10.5H10" stroke="#707070" stroke-width="2" stroke-linecap="round" stroke-linejoin="round"/>
<path d="M12.5 8.33334C12.0571 7.81554 11.4662 7.4459 10.8068 7.27422C10.1474 7.10253 9.4512 7.13705 8.81202 7.37312C8.17284 7.60919 7.62136 8.03547 7.23186 8.59454C6.84236 9.15362 6.63354 9.81863 6.63354 10.5C6.63354 11.1814 6.84236 11.8464 7.23186 12.4055C7.62136 12.9645 8.17284 13.3908 8.81202 13.6269C9.4512 13.863 10.1474 13.8975 10.8068 13.7258C11.4662 13.5541 12.0571 13.1845 12.5 12.6667" stroke="#707070" stroke-width="2" stroke-linecap="round" stroke-linejoin="round"/>
</svg>
