<svg width="20" height="21" viewBox="0 0 20 21" fill="none" xmlns="http://www.w3.org/2000/svg">
<path d="M12.0832 3.83398H7.9165L5.83317 6.33398H3.33317C2.89114 6.33398 2.46722 6.50958 2.15466 6.82214C1.8421 7.1347 1.6665 7.55862 1.6665 8.00065V15.5007C1.6665 15.9427 1.8421 16.3666 2.15466 16.6792C2.46722 16.9917 2.89114 17.1673 3.33317 17.1673H16.6665C17.1085 17.1673 17.5325 16.9917 17.845 16.6792C18.1576 16.3666 18.3332 15.9427 18.3332 15.5007V8.00065C18.3332 7.55862 18.1576 7.1347 17.845 6.82214C17.5325 6.50958 17.1085 6.33398 16.6665 6.33398H14.1665L12.0832 3.83398Z" stroke="#707070" stroke-width="2" stroke-linecap="round" stroke-linejoin="round"/>
<path d="M10 13.834C11.3807 13.834 12.5 12.7147 12.5 11.334C12.5 9.95327 11.3807 8.83398 10 8.83398C8.61929 8.83398 7.5 9.95327 7.5 11.334C7.5 12.7147 8.61929 13.834 10 13.834Z" stroke="#707070" stroke-width="2" stroke-linecap="round" stroke-linejoin="round"/>
</svg>
