<svg width="20" height="21" viewBox="0 0 20 21" fill="none" xmlns="http://www.w3.org/2000/svg">
<path d="M6.87501 5.5C6.87501 5.33424 6.94086 5.17527 7.05807 5.05806C7.17528 4.94085 7.33425 4.875 7.50001 4.875H12.5C12.6658 4.875 12.8247 4.94085 12.942 5.05806C13.0592 5.17527 13.125 5.33424 13.125 5.5C13.125 5.66576 13.0592 5.82473 12.942 5.94194C12.8247 6.05915 12.6658 6.125 12.5 6.125H7.50001C7.33425 6.125 7.17528 6.05915 7.05807 5.94194C6.94086 5.82473 6.87501 5.66576 6.87501 5.5ZM17.7117 17.2025C17.5766 17.3858 17.4002 17.5347 17.1967 17.6371C16.9933 17.7395 16.7686 17.7924 16.5408 17.7917H15.4058C15.3558 17.895 15.2967 17.995 15.2217 18.0867C15.0835 18.2552 14.9097 18.3909 14.7127 18.484C14.5156 18.5771 14.3004 18.6253 14.0825 18.625H5.91834C5.47668 18.625 5.06084 18.4292 4.77918 18.0867C4.70574 17.9964 4.64387 17.8973 4.59501 17.7917H3.46001C3.23225 17.7926 3.0075 17.7397 2.80404 17.6373C2.60059 17.5349 2.42418 17.3859 2.28918 17.2025C2.15147 17.0199 2.05886 16.8073 2.01889 16.5821C1.97892 16.357 1.99273 16.1255 2.05918 15.9067C2.32053 15.0371 2.84735 14.271 3.56584 13.7158C3.0786 13.2543 2.78114 12.6276 2.73168 11.9583H2.70918V4.66667C2.70962 4.05901 2.9512 3.47638 3.38088 3.0467C3.81055 2.61703 4.39319 2.37544 5.00084 2.375H15.0008C15.6085 2.37544 16.1911 2.61703 16.6208 3.0467C17.0505 3.47638 17.2921 4.05901 17.2925 4.66667V11.9583H17.27C17.2206 12.6276 16.9231 13.2543 16.4358 13.7158C17.1543 14.271 17.6812 15.0371 17.9425 15.9067C18.0758 16.355 17.9917 16.8267 17.7117 17.2025ZM16.0417 11.75C16.0417 10.9458 15.3875 10.2917 14.5833 10.2917C13.7792 10.2917 13.125 10.9458 13.125 11.75C13.125 12.5542 13.7792 13.2083 14.5833 13.2083C15.3875 13.2083 16.0417 12.5542 16.0417 11.75ZM3.95834 4.66667V9.475C4.39247 9.19289 4.89894 9.0424 5.41668 9.04167C6.02251 9.04167 6.57584 9.24833 7.02751 9.58583C7.42168 8.31083 8.59751 7.375 10 7.375C11.4025 7.375 12.5783 8.31 12.9725 9.58583C13.4363 9.23474 14.0016 9.04377 14.5833 9.04167C15.1011 9.0424 15.6076 9.19289 16.0417 9.475V4.66667C16.0417 4.0925 15.5742 3.625 15 3.625H5.00001C4.42584 3.625 3.95834 4.0925 3.95834 4.66667ZM10 8.625C8.96668 8.625 8.12501 9.46667 8.12501 10.5C8.12501 11.5333 8.96668 12.375 10 12.375C11.0333 12.375 11.875 11.5333 11.875 10.5C11.875 9.46667 11.0333 8.625 10 8.625ZM5.41668 10.2917C4.61251 10.2917 3.95834 10.9458 3.95834 11.75C3.95834 12.5542 4.61251 13.2083 5.41668 13.2083C6.22084 13.2083 6.87501 12.5542 6.87501 11.75C6.87501 10.9458 6.22084 10.2917 5.41668 10.2917ZM5.66334 14.4333C5.58084 14.4408 5.50168 14.4583 5.41668 14.4583C5.21834 14.4583 5.02584 14.4342 4.83918 14.3933C4.46176 14.5811 4.12666 14.844 3.85441 15.1658C3.58215 15.4876 3.37847 15.8617 3.25584 16.265C3.22918 16.3542 3.26584 16.4225 3.29001 16.4558C3.31418 16.4892 3.36834 16.5425 3.45918 16.5425H4.58751C4.79098 15.7708 5.15787 15.0518 5.66334 14.4342V14.4333ZM14.295 17.16C13.8967 15.1117 12.09 13.625 10.0008 13.625C7.91168 13.625 6.10418 15.1117 5.70668 17.16C5.70248 17.1834 5.70375 17.2075 5.7104 17.2303C5.71705 17.2532 5.7289 17.2742 5.74501 17.2917C5.78751 17.3433 5.85251 17.375 5.91918 17.375H14.0833C14.15 17.375 14.215 17.3442 14.2575 17.2917C14.2736 17.2741 14.2854 17.2531 14.292 17.2303C14.2987 17.2075 14.3 17.1834 14.2958 17.16H14.295ZM16.7442 16.265C16.6216 15.8617 16.4179 15.4876 16.1456 15.1658C15.8734 14.844 15.5383 14.5811 15.1608 14.3933C14.9713 14.4358 14.7776 14.4576 14.5833 14.4583C14.4992 14.4583 14.4192 14.4408 14.3367 14.4333C14.8418 15.0511 15.2087 15.7701 15.4125 16.5417H16.5408C16.6317 16.5417 16.6858 16.4883 16.71 16.455C16.7342 16.4217 16.7708 16.355 16.7442 16.265Z" fill="#707070"/>
</svg>
