<svg width="20" height="21" viewBox="0 0 20 21" fill="none" xmlns="http://www.w3.org/2000/svg">
<path d="M3.33334 17.1667V6.41666L1.70834 2.87499L3.20834 2.16666L5.16668 6.37499H14.8333L16.7917 2.16666L18.2917 2.87499L16.6667 6.41666V17.1667H3.33334ZM8.33334 11.3333H11.6667C11.9028 11.3333 12.1007 11.2535 12.2604 11.0937C12.4201 10.934 12.5 10.7361 12.5 10.5C12.5 10.2639 12.4201 10.066 12.2604 9.90624C12.1007 9.74652 11.9028 9.66666 11.6667 9.66666H8.33334C8.09723 9.66666 7.89932 9.74652 7.73959 9.90624C7.57987 10.066 7.50001 10.2639 7.50001 10.5C7.50001 10.7361 7.57987 10.934 7.73959 11.0937C7.89932 11.2535 8.09723 11.3333 8.33334 11.3333ZM5.00001 15.5H15V8.04166H5.00001V15.5Z" fill="#707070"/>
</svg>
