<svg width="20" height="21" viewBox="0 0 20 21" fill="none" xmlns="http://www.w3.org/2000/svg">
<path d="M1.66666 6.33332L5.34166 2.65832C5.4967 2.50235 5.68109 2.37861 5.88418 2.29422C6.08728 2.20984 6.30506 2.16648 6.52499 2.16666H13.475C13.6949 2.16648 13.9127 2.20984 14.1158 2.29422C14.3189 2.37861 14.5033 2.50235 14.6583 2.65832L18.3333 6.33332" stroke="#707070" stroke-width="2" stroke-linecap="round" stroke-linejoin="round"/>
<path d="M3.33334 10.5V17.1667C3.33334 17.6087 3.50894 18.0326 3.8215 18.3452C4.13406 18.6577 4.55798 18.8333 5.00001 18.8333H15C15.442 18.8333 15.866 18.6577 16.1785 18.3452C16.4911 18.0326 16.6667 17.6087 16.6667 17.1667V10.5" stroke="#707070" stroke-width="2" stroke-linecap="round" stroke-linejoin="round"/>
<path d="M12.5 18.8333V15.5C12.5 15.058 12.3244 14.6341 12.0118 14.3215C11.6993 14.0089 11.2754 13.8333 10.8333 13.8333H9.16667C8.72464 13.8333 8.30072 14.0089 7.98816 14.3215C7.6756 14.6341 7.5 15.058 7.5 15.5V18.8333" stroke="#707070" stroke-width="2" stroke-linecap="round" stroke-linejoin="round"/>
<path d="M1.66666 6.33334H18.3333" stroke="#707070" stroke-width="2" stroke-linecap="round" stroke-linejoin="round"/>
<path d="M18.3333 6.33334V8.83334C18.3333 9.27537 18.1577 9.69929 17.8452 10.0119C17.5326 10.3244 17.1087 10.5 16.6667 10.5C16.1798 10.4732 15.7148 10.289 15.3417 9.97501C15.2422 9.90316 15.1227 9.86448 15 9.86448C14.8773 9.86448 14.7578 9.90316 14.6583 9.97501C14.2852 10.289 13.8202 10.4732 13.3333 10.5C12.8464 10.4732 12.3814 10.289 12.0083 9.97501C11.9089 9.90316 11.7893 9.86448 11.6667 9.86448C11.544 9.86448 11.4244 9.90316 11.325 9.97501C10.9519 10.289 10.4869 10.4732 9.99999 10.5C9.5131 10.4732 9.0481 10.289 8.67499 9.97501C8.57556 9.90316 8.456 9.86448 8.33332 9.86448C8.21064 9.86448 8.09109 9.90316 7.99166 9.97501C7.61855 10.289 7.15354 10.4732 6.66666 10.5C6.17977 10.4732 5.71476 10.289 5.34166 9.97501C5.24222 9.90316 5.12267 9.86448 4.99999 9.86448C4.87731 9.86448 4.75776 9.90316 4.65832 9.97501C4.28521 10.289 3.82021 10.4732 3.33332 10.5C2.8913 10.5 2.46737 10.3244 2.15481 10.0119C1.84225 9.69929 1.66666 9.27537 1.66666 8.83334V6.33334" stroke="#707070" stroke-width="2" stroke-linecap="round" stroke-linejoin="round"/>
</svg>
