<svg width="20" height="20" viewBox="0 0 20 20" fill="none" xmlns="http://www.w3.org/2000/svg">
<path d="M12.5 15H8.33331" stroke="#707070" stroke-width="2" stroke-linecap="round" stroke-linejoin="round"/>
<path d="M15 11.6665H8.33331" stroke="#707070" stroke-width="2" stroke-linecap="round" stroke-linejoin="round"/>
<path d="M3.33335 18.3332H16.6667C17.1087 18.3332 17.5326 18.1576 17.8452 17.845C18.1578 17.5325 18.3334 17.1085 18.3334 16.6665V3.33317C18.3334 2.89114 18.1578 2.46722 17.8452 2.15466C17.5326 1.8421 17.1087 1.6665 16.6667 1.6665H6.66669C6.22466 1.6665 5.80074 1.8421 5.48818 2.15466C5.17561 2.46722 5.00002 2.89114 5.00002 3.33317V16.6665C5.00002 17.1085 4.82443 17.5325 4.51186 17.845C4.1993 18.1576 3.77538 18.3332 3.33335 18.3332ZM3.33335 18.3332C2.89133 18.3332 2.4674 18.1576 2.15484 17.845C1.84228 17.5325 1.66669 17.1085 1.66669 16.6665V9.1665C1.66669 8.72448 1.84228 8.30055 2.15484 7.98799C2.4674 7.67543 2.89133 7.49984 3.33335 7.49984H5.00002" stroke="#707070" stroke-width="2" stroke-linecap="round" stroke-linejoin="round"/>
<path d="M14.1666 5H9.16665C8.70641 5 8.33331 5.3731 8.33331 5.83333V7.5C8.33331 7.96024 8.70641 8.33333 9.16665 8.33333H14.1666C14.6269 8.33333 15 7.96024 15 7.5V5.83333C15 5.3731 14.6269 5 14.1666 5Z" stroke="#707070" stroke-width="2" stroke-linecap="round" stroke-linejoin="round"/>
</svg>
