<svg width="20" height="21" viewBox="0 0 20 21" fill="none" xmlns="http://www.w3.org/2000/svg">
<path d="M5 2.16669L2.5 5.50002V17.1667C2.5 17.6087 2.67559 18.0326 2.98816 18.3452C3.30072 18.6578 3.72464 18.8334 4.16667 18.8334H15.8333C16.2754 18.8334 16.6993 18.6578 17.0118 18.3452C17.3244 18.0326 17.5 17.6087 17.5 17.1667V5.50002L15 2.16669H5Z" stroke="white" stroke-width="2" stroke-linecap="round" stroke-linejoin="round"/>
<path d="M2.5 5.5H17.5" stroke="white" stroke-width="2" stroke-linecap="round" stroke-linejoin="round"/>
<path d="M13.3334 8.83331C13.3334 9.71737 12.9822 10.5652 12.357 11.1903C11.7319 11.8155 10.8841 12.1666 10 12.1666C9.11597 12.1666 8.26812 11.8155 7.643 11.1903C7.01788 10.5652 6.66669 9.71737 6.66669 8.83331" stroke="white" stroke-width="2" stroke-linecap="round" stroke-linejoin="round"/>
</svg>
