<svg width="24" height="24" viewBox="0 0 24 24" fill="none" xmlns="http://www.w3.org/2000/svg">
<g clip-path="url(#clip0_8731_8153)">
<path d="M6.04501 9.77701C4.89343 10.4288 3.98962 11.4429 3.47422 12.6617C2.95882 13.8804 2.86075 15.2353 3.19527 16.5155C3.52979 17.7958 4.27814 18.9295 5.32385 19.7403C6.36956 20.5511 7.65397 20.9935 8.97718 20.9986C10.3004 21.0037 11.5882 20.5713 12.6401 19.7686C13.6921 18.9659 14.4492 17.838 14.7936 16.5604C15.138 15.2827 15.0504 13.9271 14.5444 12.7044C14.0385 11.4818 13.1425 10.4607 11.996 9.80001" stroke="#707070" stroke-width="2" stroke-linecap="round" stroke-linejoin="round"/>
<path d="M11.997 20.196C13.1119 20.8402 14.4045 21.1086 15.6838 20.9616C16.963 20.8146 18.161 20.26 19.1007 19.3797C20.0405 18.4993 20.6721 17.34 20.9022 16.0731C21.1323 14.8062 20.9487 13.4988 20.3786 12.3443C19.8085 11.1897 18.882 10.2492 17.7362 9.66173C16.5904 9.07424 15.286 8.87097 14.0157 9.08194C12.7454 9.29292 11.5768 9.90695 10.6824 10.8333C9.78797 11.7596 9.2153 12.9491 9.04901 14.226" stroke="#707070" stroke-width="2" stroke-linecap="round" stroke-linejoin="round"/>
<path d="M17.95 9.78501C17.9833 9.52768 18 9.26601 18 9.00001C17.9996 7.68204 17.5652 6.40089 16.764 5.35442C15.9628 4.30796 14.8393 3.55441 13.5671 3.21019C12.2949 2.86596 10.9447 2.9502 9.72515 3.4499C8.50559 3.94959 7.48449 4.83694 6.81956 5.97488C6.15464 7.11282 5.8829 8.43804 6.0463 9.74583C6.20971 11.0536 6.79918 12.2712 7.72365 13.2106C8.64813 14.1499 9.85618 14.7587 11.1612 14.943C12.4662 15.1273 13.7956 14.8767 14.944 14.23" stroke="#707070" stroke-width="2" stroke-linecap="round" stroke-linejoin="round"/>
</g>
<defs>
<clipPath id="clip0_8731_8153">
<rect width="24" height="24" fill="white"/>
</clipPath>
</defs>
</svg>
