<svg width="20" height="21" viewBox="0 0 20 21" fill="none" xmlns="http://www.w3.org/2000/svg">
<path d="M10.1833 2.16663H9.81667C9.37464 2.16663 8.95072 2.34222 8.63816 2.65478C8.3256 2.96734 8.15 3.39127 8.15 3.83329V3.98329C8.1497 4.27556 8.07255 4.56262 7.92628 4.81566C7.78002 5.0687 7.56978 5.27882 7.31667 5.42496L6.95834 5.63329C6.70497 5.77957 6.41756 5.85658 6.125 5.85658C5.83244 5.85658 5.54503 5.77957 5.29167 5.63329L5.16667 5.56663C4.78422 5.34601 4.32987 5.28616 3.90334 5.40022C3.47681 5.51427 3.11296 5.79291 2.89167 6.17496L2.70833 6.49163C2.48772 6.87407 2.42787 7.32843 2.54192 7.75496C2.65598 8.18149 2.93461 8.54533 3.31667 8.76663L3.44167 8.84996C3.69356 8.99538 3.90302 9.2042 4.04921 9.45565C4.1954 9.7071 4.27325 9.99244 4.275 10.2833V10.7083C4.27617 11.002 4.19971 11.2908 4.05337 11.5454C3.90703 11.8 3.69601 12.0115 3.44167 12.1583L3.31667 12.2333C2.93461 12.4546 2.65598 12.8184 2.54192 13.245C2.42787 13.6715 2.48772 14.1258 2.70833 14.5083L2.89167 14.825C3.11296 15.207 3.47681 15.4856 3.90334 15.5997C4.32987 15.7138 4.78422 15.6539 5.16667 15.4333L5.29167 15.3666C5.54503 15.2203 5.83244 15.1433 6.125 15.1433C6.41756 15.1433 6.70497 15.2203 6.95834 15.3666L7.31667 15.575C7.56978 15.7211 7.78002 15.9312 7.92628 16.1843C8.07255 16.4373 8.1497 16.7244 8.15 17.0166V17.1666C8.15 17.6087 8.3256 18.0326 8.63816 18.3451C8.95072 18.6577 9.37464 18.8333 9.81667 18.8333H10.1833C10.6254 18.8333 11.0493 18.6577 11.3618 18.3451C11.6744 18.0326 11.85 17.6087 11.85 17.1666V17.0166C11.8503 16.7244 11.9275 16.4373 12.0737 16.1843C12.22 15.9312 12.4302 15.7211 12.6833 15.575L13.0417 15.3666C13.295 15.2203 13.5824 15.1433 13.875 15.1433C14.1676 15.1433 14.455 15.2203 14.7083 15.3666L14.8333 15.4333C15.2158 15.6539 15.6701 15.7138 16.0967 15.5997C16.5232 15.4856 16.887 15.207 17.1083 14.825L17.2917 14.5C17.5123 14.1175 17.5721 13.6632 17.4581 13.2366C17.344 12.8101 17.0654 12.4463 16.6833 12.225L16.5583 12.1583C16.304 12.0115 16.093 11.8 15.9466 11.5454C15.8003 11.2908 15.7238 11.002 15.725 10.7083V10.2916C15.7238 9.99794 15.8003 9.70917 15.9466 9.45454C16.093 9.19991 16.304 8.98847 16.5583 8.84163L16.6833 8.76663C17.0654 8.54533 17.344 8.18149 17.4581 7.75496C17.5721 7.32843 17.5123 6.87407 17.2917 6.49163L17.1083 6.17496C16.887 5.79291 16.5232 5.51427 16.0967 5.40022C15.6701 5.28616 15.2158 5.34601 14.8333 5.56663L14.7083 5.63329C14.455 5.77957 14.1676 5.85658 13.875 5.85658C13.5824 5.85658 13.295 5.77957 13.0417 5.63329L12.6833 5.42496C12.4302 5.27882 12.22 5.0687 12.0737 4.81566C11.9275 4.56262 11.8503 4.27556 11.85 3.98329V3.83329C11.85 3.39127 11.6744 2.96734 11.3618 2.65478C11.0493 2.34222 10.6254 2.16663 10.1833 2.16663Z" stroke="#7D7F88" stroke-width="2" stroke-linecap="round" stroke-linejoin="round"/>
<path d="M10 13C11.3807 13 12.5 11.8807 12.5 10.5C12.5 9.11929 11.3807 8 10 8C8.61929 8 7.5 9.11929 7.5 10.5C7.5 11.8807 8.61929 13 10 13Z" stroke="#7D7F88" stroke-width="2" stroke-linecap="round" stroke-linejoin="round"/>
</svg>
