<svg width="20" height="21" viewBox="0 0 20 21" fill="none" xmlns="http://www.w3.org/2000/svg">
<path d="M9.60416 2.41249C9.64068 2.33871 9.6971 2.2766 9.76704 2.23318C9.83698 2.18976 9.91767 2.16675 9.99999 2.16675C10.0823 2.16675 10.163 2.18976 10.233 2.23318C10.3029 2.2766 10.3593 2.33871 10.3958 2.41249L12.3208 6.31166C12.4476 6.5683 12.6348 6.79033 12.8663 6.9587C13.0979 7.12707 13.3668 7.23675 13.65 7.27833L17.955 7.90833C18.0366 7.92014 18.1132 7.95455 18.1762 8.00766C18.2393 8.06076 18.2862 8.13045 18.3117 8.20883C18.3372 8.28721 18.3402 8.37116 18.3205 8.45119C18.3007 8.53121 18.259 8.60412 18.2 8.66166L15.0867 11.6933C14.8813 11.8934 14.7277 12.1404 14.639 12.413C14.5503 12.6856 14.5292 12.9757 14.5775 13.2583L15.3125 17.5417C15.3269 17.6232 15.3181 17.7071 15.2871 17.7839C15.2561 17.8607 15.2041 17.9272 15.1371 17.9758C15.0701 18.0245 14.9908 18.0533 14.9082 18.0591C14.8256 18.0648 14.7431 18.0472 14.67 18.0083L10.8217 15.985C10.5681 15.8518 10.286 15.7823 9.99958 15.7823C9.71318 15.7823 9.43106 15.8518 9.17749 15.985L5.32999 18.0083C5.25694 18.047 5.17449 18.0644 5.09204 18.0585C5.00958 18.0527 4.93043 18.0238 4.86357 17.9752C4.79672 17.9266 4.74485 17.8601 4.71387 17.7835C4.68289 17.7069 4.67404 17.6231 4.68833 17.5417L5.42249 13.2592C5.47099 12.9764 5.44998 12.6862 5.36128 12.4134C5.27257 12.1406 5.11883 11.8935 4.91333 11.6933L1.79999 8.66249C1.74049 8.60502 1.69832 8.53199 1.6783 8.45172C1.65827 8.37145 1.66119 8.28717 1.68673 8.20848C1.71226 8.1298 1.75938 8.05986 1.82272 8.00665C1.88607 7.95343 1.96308 7.91907 2.04499 7.90749L6.34916 7.27833C6.63271 7.23708 6.90199 7.12754 7.13381 6.95915C7.36564 6.79076 7.55308 6.56855 7.67999 6.31166L9.60416 2.41249Z" stroke="#707070" stroke-width="2" stroke-linecap="round" stroke-linejoin="round"/>
</svg>
